<?xml version="1.0" encoding="UTF-8"?>
<svg id="Capa_2" data-name="Capa 2" xmlns="http://www.w3.org/2000/svg" viewBox="0 0 101.51 82.46">
  <defs>
    <style>
      .cls-1 {
        fill: #fff;
        stroke-width: 0px;
      }
    </style>
  </defs>
  <g id="Capa_1-2" data-name="Capa 1">
    <g>
      <path class="cls-1" d="m0,68.18V3.15C.62,1.8,1.77,0,3.66,0h94.21c1.74,0,3.62,1.93,3.63,3.57l.02,64c0,2-1.8,3.67-3.58,3.73l-4.85.16,2.08,4.27c.4.81.29,1.61-.26,2.19-1.22,1.3-3.56-.06-5.7-.07l-2.2,3.58c-.34.55-.93.98-1.48,1.03-.42.04-1.31-.19-1.57-.72l-4.18-8.56-1.82,3.76-2.21,4.54c-.32.65-1.04.98-1.66.97-.72-.02-1.21-.47-1.59-1.09l-2.12-3.48c-2.31-.04-4.71,1.59-5.95-.29-.42-.64-.23-1.61.23-2.24.49-1.34,1.12-2.46,1.84-3.96l-62.84-.06c-1.93,0-3.01-1.72-3.66-3.13Zm82.66-26.27c.75.5,1.41.51,2.23.49,1.52-.02,3.07.72,4.05,1.85.68.78.99,1.93,1.97,2.41,1.95.95,3.23,2.78,3.07,5.08-.05.68.06,1.32.47,1.91,1.28,1.83,1.29,4.23,0,6.05-.48.68-.47,1.33-.46,2.15.03,2.08-1.24,3.99-3.14,4.81.18.49.33.94.62,1.52l6.26-.05c.56,0,.81-.81.81-1.38V4.39c0-.46-.32-1.23-.85-1.23H3.82c-.63,0-.85.91-.85,1.42v62.37c0,.47.33,1.23.85,1.23h64.1c.41-.5.68-.93.68-1.56-1.7-.74-2.89-2.43-3.01-4.31-.07-1.06-.08-1.97-.67-2.93-1.09-1.76-.89-4.06.19-5.78.38-.61.46-1.33.45-1.98-.04-2.31,1.34-4.16,3.38-5.13.95-.45,1.76-4.35,6.23-4.07.6.04,1.1-.08,1.58-.41,1.79-1.26,4.06-1.34,5.93-.09Zm2.01,25.87c2.55.2,2.19-2.45,4.5-3.62,3.06-1.54.77-3.28,2.72-6.21.48-.72.56-1.9.04-2.57-2.03-2.63.4-4.58-2.77-6.22-.72-.37-1.58-1.23-1.93-1.93-1.53-2.99-2.57-.56-6.09-2.67-2.56-1.53-2.32,1.15-6.78.99-1.94-.07-1.44,2.46-4.43,3.91-2.37,1.14-.34,2.97-2.26,5.87-1.52,2.3,1.32,2.98.94,6.09-.31,2.57,2.28,1.97,3.92,5,1.35,2.52,3.04.33,5.7,2.22,2.4,1.7,3.19-1.13,6.45-.88Zm-10.62,10.08l3.07-6.22c-1.78-1.59-2.97.46-6.24-2.26l-2.68,5.53,2.92-.29c.45-.04,1.05.27,1.29.64l1.64,2.59Zm14.41-3.28c.93,0,1.76.45,2.78.32-.1-.4-.28-.78-.46-1.15l-2.13-4.36c-2.92,2.58-4.7.71-6.21,2.31,1.11,2.06,1.99,3.96,3.01,6.21.79-.79,1.52-3.33,3.01-3.33Z"/>
      <g>
        <path class="cls-1" d="m10.11,53.83c3.64.65,6.39,3.37,7.01,7.02h43.31c.64.29,1.05.83,1.07,1.29s-.11,1.66-.91,1.66H15.52c-.73,0-1.29-1.14-1.33-1.65-.21-2.99-2.4-5.18-5.38-5.38-.52-.04-1.66-.6-1.66-1.32V15.89c0-.72,1.14-1.29,1.66-1.32,2.99-.2,5.18-2.4,5.38-5.38.04-.52.59-1.66,1.33-1.66h70.07c.81,0,1.3,1.03,1.35,1.62.27,3.11,2.44,5.36,5.59,5.38.58,0,1.81.61,1.81,1.35l.02,27.28c0,.7-.98,1.18-1.46,1.17-.63-.01-1.34-.46-1.5-1.17l-.02-25.62c-3.83-.53-6.65-3.34-7.37-7.06H17.12c-.62,3.62-3.38,6.4-7.01,7.01v36.35Z"/>
        <path class="cls-1" d="m80.12,20.58H21.47c-.8.01-1.1-.94-1.13-1.47-.03-.47.4-1.47,1.14-1.47l58.39-.02c.79,0,1.25.81,1.3,1.34.05.47-.19,1.61-1.06,1.61Z"/>
        <path class="cls-1" d="m79.87,36.85H21.65c-.79,0-1.25-.77-1.3-1.36-.05-.53.29-1.6,1.12-1.6h58.58c.79,0,1.11.95,1.13,1.48.02.61-.47,1.48-1.31,1.48Z"/>
        <path class="cls-1" d="m79.88,28.72h-43.57c-.74,0-1.19-.84-1.23-1.3s.12-1.64.9-1.64l44.08-.02c.78,0,1.11.96,1.12,1.48.02.61-.47,1.48-1.3,1.48Z"/>
        <path class="cls-1" d="m60.57,47.38h-19.71c-.82-.01-1.38-.54-1.57-1.16-.16-.51.23-1.8,1-1.8h20.94c.7,0,1.1,1.16,1.02,1.64-.11.67-.7,1.31-1.69,1.31Z"/>
        <path class="cls-1" d="m29.82,28.7h-8.21c-.71.01-1.22-.74-1.27-1.34s.32-1.57,1.09-1.58l8.68-.05c.63.38,1.12.84,1.05,1.51-.06.57-.46,1.45-1.33,1.46Z"/>
      </g>
      <path class="cls-1" d="m84.41,48.72c3.83,2.26,5.38,6.75,4.06,10.84-1.26,3.92-5.22,6.7-9.45,6.36-3.85-.31-7-2.9-8.13-6.21-1.31-3.85-.03-7.81,2.84-10.18,3.06-2.52,7.16-2.9,10.67-.82Zm-10.84,8.89c.47,3.43,3.58,5.57,6.83,5.22,3.05-.33,5.52-3.14,5.47-6.24-.05-3.19-2.55-5.84-5.66-6.08-3.22-.25-6.12,1.86-6.64,5.19-.08.51-.09,1.24,0,1.91Z"/>
    </g>
  </g>
</svg>