<?xml version="1.0" encoding="UTF-8"?>
<svg id="Capa_2" data-name="Capa 2" xmlns="http://www.w3.org/2000/svg" viewBox="0 0 83.02 95.79">
  <defs>
    <style>
      .cls-1 {
        fill: #00206b;
        stroke-width: 0px;
      }
    </style>
  </defs>
  <g id="Capa_1-2" data-name="Capa 1">
    <path class="cls-1" d="m49.3,95.23l-7.79-5.71-7.86,5.75c-.97.71-2.32.65-3.33.06-.88-.5-1.58-1.51-1.58-2.76v-20.66c-2.53-2.25-4.28-4.89-5.42-8.06l-13.75-.02C4.28,63.84,0,59.58,0,54.26V9.59C0,4.28,4.28,0,9.6,0h63.8c5.33,0,9.6,4.27,9.6,9.6v44.46c.02,5.41-4.13,9.79-9.58,9.79h-13.73c-1.14,3.19-2.89,5.83-5.41,8.08v20.65c0,1.25-.71,2.26-1.58,2.75-1.04.59-2.36.66-3.41-.1Zm11.46-37.77h12.48c1.88.01,3.33-1.26,3.39-3.22V9.6c0-1.81-1.42-3.22-3.23-3.22H9.61c-1.82,0-3.22,1.41-3.22,3.21v44.66c.04,1.8,1.4,3.21,3.19,3.21h12.68c.06-10.59,8.68-19.1,19.17-19.15,10.5-.05,19.25,8.41,19.34,19.15Zm-6.39.1c0-7.1-5.76-12.86-12.86-12.86s-12.86,5.76-12.86,12.86,5.76,12.86,12.86,12.86,12.86-5.76,12.86-12.86Zm-10.81,25.52l4.33,3.15-.02-10.51c-4.38,1.49-8.55,1.43-12.76,0l.02,10.53,4.65-3.39c1.17-.73,2.62-.68,3.78.23Z"/>
    <path class="cls-1" d="m60.75,31.92H22.37c-1.84,0-3.16-1.47-3.2-3.09-.05-1.74,1.29-3.29,3.2-3.29h38.28c1.83,0,3.15,1.44,3.2,3.1.05,1.56-1.15,3.28-3.09,3.28Z"/>
    <path class="cls-1" d="m51.19,19.14h-19.26c-1.81.01-3.15-1.46-3.19-3.09-.05-1.74,1.31-3.29,3.19-3.29h19.15c1.8,0,3.14,1.44,3.19,3.1.05,1.57-1.18,3.27-3.08,3.27Z"/>
  </g>
</svg>