<?xml version="1.0" encoding="UTF-8"?>
<svg id="Capa_2" data-name="Capa 2" xmlns="http://www.w3.org/2000/svg" viewBox="0 0 96.67 96.67">
  <defs>
    <style>
      .cls-1 {
        fill: #00206b;
        stroke-width: 0px;
      }
    </style>
  </defs>
  <g id="Capa_1-2" data-name="Capa 1">
    <g>
      <path class="cls-1" d="m74.8,78.76l-5.79-5.75c-.52-.52-.84-1.24-.84-2.01v-11.33c0-1.67,1.4-2.87,2.91-2.82s2.76,1.34,2.75,3.01v9.97s4.89,4.93,4.89,4.93c1.08,1.09.97,2.81-.03,3.86s-2.75,1.29-3.89.15Z"/>
      <path class="cls-1" d="m71.75,0c1.35.65,2.09,1.62,2.09,3.24l-.02,42.42c12.24,1.42,21.21,10.83,22.85,22.69v5.48c-1.86,12.32-11.33,21.83-24.08,22.83H2.87c-1.63.01-2.86-1.23-2.86-2.85V19.87c0-.86.3-1.51.86-2.07L18.12.55c.36-.36.9-.21,1.14-.55h52.49ZM5.67,91h49.35c-8.3-6.97-11.54-17.68-8.26-27.9,2.97-9.25,11.33-16.33,21.4-17.43V5.67s-45.5,0-45.5,0v14.16c-.01,1.58-1.26,2.82-2.83,2.82H5.66s.02,68.36.02,68.36ZM17,16.98l-.04-7.26-7.25,7.25h7.29Zm73.95,54.07c0-10.99-8.91-19.9-19.9-19.9s-19.9,8.91-19.9,19.9,8.91,19.9,19.9,19.9,19.9-8.91,19.9-19.9Z"/>
      <path class="cls-1" d="m37.1,39.82l-22.93.02c-1.62,0-2.78-1.3-2.83-2.74-.05-1.53,1.15-2.91,2.83-2.91h22.83c1.61,0,2.78,1.27,2.83,2.74s-1.01,2.9-2.72,2.9Z"/>
      <path class="cls-1" d="m37.1,51.14l-22.93.02c-1.62,0-2.78-1.3-2.83-2.74-.05-1.53,1.15-2.91,2.83-2.91h22.83c1.61,0,2.78,1.27,2.83,2.74.04,1.39-1.01,2.9-2.72,2.9Z"/>
      <path class="cls-1" d="m37.1,62.47l-22.93.02c-1.62,0-2.78-1.3-2.83-2.74-.05-1.53,1.15-2.91,2.83-2.91h22.83c1.61,0,2.78,1.27,2.83,2.74s-1.01,2.9-2.72,2.9Z"/>
      <path class="cls-1" d="m59.76,28.49l-17.09.02c-1.61,0-2.78-1.3-2.83-2.74-.05-1.54,1.15-2.91,2.82-2.91h16.99c1.6,0,2.78,1.27,2.82,2.74.04,1.4-1.02,2.89-2.72,2.9Z"/>
    </g>
  </g>
</svg>